<svg width="201" height="200" viewBox="0 0 201 200" fill="none" xmlns="http://www.w3.org/2000/svg">
<g id="oldcc">
<g id="main">
<path d="M100.265 200C45.106 200 0.265259 155.105 0.265259 99.9366C0.265259 44.7686 45.106 0 100.265 0C155.424 0 200.265 44.8954 200.265 99.9366C200.265 154.978 155.424 200 100.265 200Z" fill="white"/>
<path d="M100.265 3.04375C46.7621 3.04375 3.32258 46.5441 3.32258 99.9366C3.32258 153.329 46.7621 196.829 100.265 196.829C153.768 196.829 197.208 153.329 197.208 99.9366C197.335 46.5441 153.768 3.04375 100.265 3.04375ZM100.265 200C45.106 200 0.265259 155.105 0.265259 99.9366C0.265259 44.7686 45.106 0 100.265 0C155.424 0 200.265 44.8954 200.265 99.9366C200.265 154.978 155.424 200 100.265 200Z" fill="#0D4976"/>
<path d="M21.7935 120.609C21.284 121.243 20.5196 121.623 19.3731 121.877L15.2967 122.892C14.1502 123.145 13.2585 123.145 12.6215 122.765C11.7298 122.384 11.2203 121.75 10.9655 120.736C10.7107 119.721 10.8381 118.833 11.3477 118.199C11.8572 117.565 12.6215 117.185 13.768 116.931L17.8445 115.916C18.991 115.663 19.8827 115.663 20.647 116.043C21.4114 116.424 21.7935 117.058 22.0483 118.072C22.4305 119.087 22.3031 119.975 21.7935 120.609ZM20.1375 117.311C19.7553 117.185 19.2458 117.185 18.6088 117.311L13.8954 118.453C13.2585 118.58 12.7489 118.833 12.4942 119.087C12.2394 119.341 12.112 119.721 12.2394 120.355C12.3668 120.862 12.6215 121.243 13.0037 121.37C13.3859 121.497 13.8954 121.497 14.5324 121.37L19.2458 120.228C19.8827 120.101 20.3923 119.848 20.647 119.594C20.9018 119.341 21.0292 118.96 20.9018 118.326C20.7744 117.819 20.5196 117.438 20.1375 117.311ZM9.94639 114.902L9.30945 110.59L10.4559 110.463L10.8381 113.126L14.5324 112.619L14.2776 110.463L15.4241 110.336L15.6789 112.492L20.9018 111.731L21.1566 113.253L9.94639 114.902ZM9.05467 108.053L8.6725 103.741L9.819 103.614L10.0738 106.405L13.768 106.151L13.6407 103.995L14.7872 103.868L14.9145 106.024L20.1375 105.644L20.2649 107.166L9.05467 108.053ZM8.6725 101.332V99.8098L19.8827 99.683V101.205L8.6725 101.332ZM18.991 97.0197C18.354 97.4002 17.3349 97.6538 16.1884 97.527L12.2394 97.2733C10.9655 97.1465 10.0738 96.8929 9.43683 96.5124C8.79989 96.1319 8.54511 95.2442 8.6725 94.1027C8.6725 93.0882 9.05467 92.4541 9.56422 91.9468C10.0738 91.5663 10.9655 91.3126 11.9846 91.4395H12.8763L12.7489 92.9613H10.8381C10.5833 92.9613 10.3286 93.0882 10.2012 93.215C10.0738 93.3418 9.94639 93.7223 9.94639 94.1027C9.94639 94.4832 9.94639 94.8637 10.2012 95.1173C10.3286 95.371 10.5833 95.4978 10.9655 95.6246C11.2203 95.7515 11.7298 95.7515 12.2394 95.7515L16.698 96.0051H18.0993C18.4814 95.8783 18.6088 95.7515 18.8636 95.6246C18.991 95.371 19.1184 95.1173 19.1184 94.7369C19.1184 94.3564 19.1184 94.1028 18.8636 93.8491C18.7362 93.5955 18.4814 93.4686 18.2266 93.4686C17.9719 93.4686 17.4623 93.3418 16.9528 93.3418H16.1884L16.3158 91.8199H17.0801C18.2266 91.9468 18.991 92.2004 19.6279 92.5809C20.1375 93.0882 20.3922 93.7223 20.3922 94.8637C20.0101 95.8783 19.6279 96.6392 18.991 97.0197ZM9.30945 88.5225L9.94639 84.2106L11.0929 84.3374L10.7107 87.1275L14.405 87.6348L14.7872 85.4788L15.9337 85.6056L15.5515 87.7616L19.6279 88.3957L20.0101 85.6056L21.1566 85.7324L20.3922 90.0444L9.30945 88.5225ZM21.6661 79.1376C20.9018 79.3913 20.0101 79.3913 18.8636 79.0108L14.7872 77.8694C13.6407 77.4889 12.8763 77.1085 12.4942 76.4743C12.112 75.8402 11.9846 75.0793 12.2394 73.9379C12.4942 72.7965 13.0037 72.2892 13.768 71.9087C14.5324 71.6551 15.4241 71.6551 16.4432 71.9087L20.5196 73.0501C21.6661 73.4306 22.4305 73.8111 22.94 74.4452C23.4496 75.0793 23.4496 75.9671 23.1948 76.9816C22.8126 78.1231 22.3031 78.884 21.6661 79.1376ZM21.7935 75.4598C21.5387 75.2061 21.0292 74.9525 20.3922 74.6988L15.6789 73.3038C15.0419 73.0501 14.5324 73.0501 14.1502 73.1769C13.768 73.3038 13.5133 73.5574 13.3859 74.1915C13.2585 74.6988 13.2585 75.2061 13.5133 75.4598C13.768 75.7134 14.2776 75.967 14.9145 76.2207L19.6279 77.6158C20.2649 77.8694 20.7744 77.8694 21.1566 77.7426C21.5387 77.6158 21.7935 77.3621 21.9209 76.728C22.1757 76.2207 22.0483 75.8402 21.7935 75.4598ZM14.1502 68.2308L15.8063 64.2993L16.8254 64.6798L15.8063 67.2163L19.2458 68.6113L20.0101 66.5821L21.0292 66.9626L20.2649 68.9918L25.1056 70.8941L24.5961 72.2892L14.1502 68.2308ZM18.8636 57.5777L19.6279 56.1826L28.4177 61.0019L29.819 58.4655L30.8381 58.9728L28.7999 62.7775L18.8636 57.5777ZM31.2203 56.8168C30.4559 56.8168 29.5642 56.5631 28.5451 55.929L24.9782 53.6462C23.9591 53.0121 23.4496 52.378 23.1948 51.617C22.94 50.8561 23.1948 50.0951 23.7044 49.2074C24.3413 48.3196 24.9782 47.8123 25.7426 47.8123C26.5069 47.8123 27.3986 48.066 28.2903 48.7001L31.8572 50.9829C32.8763 51.617 33.3859 52.2511 33.6407 53.0121C33.8954 53.773 33.768 54.534 33.1311 55.4217C32.6215 56.3095 31.9846 56.8168 31.2203 56.8168ZM32.4942 53.5194C32.3668 53.1389 31.9846 52.7584 31.3477 52.378L27.2712 49.7147C26.7617 49.3342 26.2521 49.2074 25.87 49.0806C25.4878 49.0806 25.1056 49.3342 24.8508 49.8415C24.4687 50.3488 24.4687 50.7293 24.5961 51.1097C24.7235 51.4902 25.1056 51.8707 25.7426 52.2511L29.819 54.9144C30.4559 55.2949 30.8381 55.5485 31.2203 55.5485C31.6024 55.5485 31.9846 55.2949 32.2394 54.7876C32.4942 54.2803 32.6215 53.773 32.4942 53.5194ZM35.6789 50.3488C34.9145 50.3488 34.0228 49.8415 33.1311 49.2074L30.0738 46.7977C29.1821 46.0368 28.5451 45.2759 28.2903 44.5149C28.0356 43.754 28.2903 42.993 29.0547 42.1053C29.6916 41.3443 30.3286 40.9639 31.0929 40.9639C31.7298 40.9639 32.4942 41.3443 33.3859 41.9785L34.0228 42.4858L33.1311 43.6272L32.4942 43.1199C32.112 42.7394 31.7298 42.6126 31.4751 42.4858C31.2203 42.3589 30.9655 42.3589 30.7107 42.3589C30.4559 42.3589 30.2012 42.6126 29.9464 42.8662C29.6916 43.1199 29.5642 43.3735 29.5642 43.6272C29.5642 43.8808 29.6916 44.1345 29.9464 44.3881L30.8381 45.2759L34.2776 48.066C34.6598 48.4464 35.0419 48.7001 35.4241 48.8269C35.8063 48.9537 36.061 48.9537 36.1884 48.9537C36.4432 48.8269 36.698 48.7001 36.9528 48.4464C37.2075 48.1928 37.3349 47.8123 37.3349 47.5587C37.3349 47.305 37.2075 47.0514 36.9528 46.7977L36.061 45.91L35.4241 45.4027L36.3158 44.2613L36.9528 44.7686C37.8445 45.4027 38.354 46.1636 38.6088 46.7977C38.8636 47.4319 38.6088 48.1928 37.9719 49.0806C37.2075 49.9683 36.4432 50.3488 35.6789 50.3488ZM34.0228 36.3983L35.0419 35.3837L44.7235 41.4712L43.7043 42.4858L41.284 40.8371L39.7553 42.4858L41.4114 44.7686L40.3923 45.7832L34.0228 36.3983ZM40.3923 40.2029L36.1884 37.4128L39.1184 41.598L40.3923 40.2029ZM38.7362 31.8326L39.8827 30.818L46.5069 38.4274L48.6725 36.5251L49.4368 37.4128L46.1247 40.2029L38.7362 31.8326ZM48.0356 24.4769L50.0738 23.2086C51.0929 22.5745 51.9846 22.3209 52.6216 22.5745C53.3859 22.7014 54.0228 23.3355 54.6598 24.3501L56.9528 27.7743C57.5897 28.7889 57.9719 29.6766 57.8445 30.4376C57.7171 31.1985 57.2075 31.9594 56.3158 32.4667L54.1502 33.8618L48.0356 24.4769ZM55.5515 31.579C56.061 31.3253 56.3158 30.9449 56.3158 30.6912C56.4432 30.4376 56.3158 30.0571 56.1884 29.6766C56.061 29.2962 55.8063 28.9157 55.4241 28.2816L53.3859 25.2378C53.0037 24.7305 52.7489 24.3501 52.4942 24.0964C52.2394 23.8428 51.9846 23.7159 51.7298 23.7159C51.4751 23.7159 51.0929 23.8428 50.5833 24.0964L49.9464 24.6037L54.7872 32.0863L55.5515 31.579ZM55.2967 19.9112L59.1184 17.8821L59.6279 18.8967L57.2075 20.1649L58.991 23.4623L61.0292 22.4477L61.5387 23.4623L59.5005 24.4769L61.4114 28.0279L63.8317 26.7597L64.3413 27.7743L60.5196 29.8034L55.2967 19.9112ZM61.5387 16.7407L65.4878 14.9651L65.9973 15.9797L63.4496 17.1211L64.9782 20.5454L66.8891 19.6576L67.3986 20.6722L65.3604 21.5599L67.526 26.3792L66.1247 27.0133L61.5387 16.7407ZM67.9082 14.0774L71.9846 12.6823L72.3668 13.8237L69.6916 14.7115L70.9655 18.1357L73.1311 17.3748L73.5133 18.3894L71.3477 19.1503L72.7489 22.955L75.4241 22.0672L75.8063 23.0818L71.6024 24.6037L67.9082 14.0774ZM74.5324 11.9214L75.5515 11.6677L80.5196 18.0089L78.6088 10.9068L79.8827 10.5263L82.6852 21.3063L81.7935 21.4331L76.698 14.8383L78.6088 22.1941L77.3349 22.5745L74.5324 11.9214ZM85.233 20.0381C84.5961 19.5308 84.2139 18.7698 84.0865 17.8821L85.3604 17.248C85.4878 17.8821 85.7426 18.5162 85.9974 18.8967C86.2521 19.2771 86.7617 19.404 87.2712 19.404C87.6534 19.2771 87.9082 19.1503 88.163 18.8967C88.2903 18.643 88.4177 18.2626 88.2903 17.8821C88.163 17.3748 88.0356 17.1211 87.7808 16.8675C87.526 16.6138 87.1438 16.3602 86.7617 15.9797L84.5961 14.7115C84.2139 14.4579 83.8317 14.2042 83.577 13.8237C83.3222 13.4433 83.1948 13.0628 83.0674 12.4287C82.94 11.6677 83.0674 10.9068 83.4496 10.3995C83.8317 9.89223 84.4687 9.51176 85.233 9.38493C86.1247 9.25811 86.7617 9.38493 87.2712 9.7654C87.7808 10.1459 88.163 10.78 88.4177 11.7946L87.1438 12.3019C87.0165 11.6677 86.7617 11.1605 86.5069 10.9068C86.2521 10.6532 85.87 10.5263 85.3604 10.5263C84.9782 10.6532 84.7235 10.78 84.4687 11.0336C84.2139 11.2873 84.2139 11.5409 84.3413 12.0482C84.3413 12.4287 84.4687 12.6823 84.5961 12.8092L85.233 13.4433L87.3986 14.7115C87.9082 15.092 88.4177 15.4724 88.7999 15.8529C89.1821 16.3602 89.4368 16.8675 89.5642 17.5016C89.6916 18.2626 89.5642 19.0235 89.1821 19.5308C88.7999 20.0381 88.163 20.4185 87.3986 20.5454C86.5069 20.6722 85.87 20.5454 85.233 20.0381ZM90.9655 8.62399L95.2967 8.24353L95.4241 9.38493L92.6216 9.63858L92.8763 13.3164L95.1693 13.1896L95.2967 14.331L93.0037 14.4579L93.3859 18.5162L96.1884 18.2625L96.3158 19.404L91.9846 19.7844L90.9655 8.62399ZM102.813 18.5162C102.43 17.8821 102.176 16.8675 102.303 15.7261L102.558 11.7946C102.685 10.5263 102.94 9.63858 103.322 9.00447C103.704 8.37035 104.596 8.1167 105.743 8.24353C106.762 8.24353 107.399 8.62399 107.908 9.13129C108.29 9.63858 108.545 10.5263 108.418 11.5409V12.4287L106.889 12.3019V10.3995C106.889 10.1459 106.762 9.89223 106.634 9.7654C106.507 9.63858 106.125 9.51176 105.743 9.51176C105.36 9.51176 104.978 9.51176 104.723 9.7654C104.469 9.89223 104.341 10.1459 104.214 10.5263C104.087 10.78 104.087 11.2873 104.087 11.7946L103.832 16.2334V17.6284C103.959 18.0089 104.087 18.1357 104.214 18.3894C104.469 18.5162 104.723 18.643 105.106 18.643C105.488 18.643 105.743 18.643 105.997 18.3894C106.252 18.2625 106.38 18.0089 106.38 17.7553C106.507 17.5016 106.507 16.9943 106.507 16.487V15.7261L108.036 15.8529V16.6138C107.908 17.7553 107.653 18.5162 107.271 19.1503C106.762 19.6576 106.125 19.9112 104.978 19.9112C103.959 19.5308 103.195 19.1503 102.813 18.5162ZM110.583 19.1503C110.201 18.5162 110.074 17.5016 110.329 16.3602L110.966 12.175C111.093 11.0336 111.475 10.1459 112.112 9.63858C112.622 9.13129 113.513 9.00446 114.532 9.13129C115.551 9.25811 116.316 9.7654 116.698 10.3995C117.08 11.0336 117.208 11.9214 116.953 13.0628L116.316 17.248C116.188 18.3894 115.806 19.2771 115.169 19.7844C114.66 20.2917 113.768 20.5454 112.749 20.2917C111.602 20.2917 110.966 19.7844 110.583 19.1503ZM114.15 18.8967C114.405 18.643 114.532 18.1357 114.66 17.3748L115.424 12.5555C115.552 11.9214 115.552 11.4141 115.297 11.0336C115.169 10.6532 114.787 10.3995 114.278 10.3995C113.641 10.2727 113.259 10.3995 113.004 10.6532C112.749 10.9068 112.622 11.4141 112.494 12.0482L111.73 16.8675C111.602 17.5016 111.602 18.0089 111.73 18.3894C111.857 18.7698 112.239 19.0235 112.876 19.0235C113.513 19.2771 113.895 19.1503 114.15 18.8967ZM120.52 10.3995L122.048 10.78L121.666 20.0381L125.87 11.7946L127.399 12.175L124.723 22.955L123.45 22.5745L125.488 14.7115L121.539 22.0672L120.647 21.8136L120.902 13.5701L118.736 21.4331L117.462 21.0527L120.52 10.3995ZM130.838 13.3164L132.239 13.8237L130.711 22.955L135.934 15.3456L137.335 15.8529L133.386 26.2524L132.239 25.7451L135.169 18.1357L130.456 24.9842L129.692 24.6037L130.966 16.3602L127.653 24.0964L126.507 23.5891L130.838 13.3164ZM136.316 27.3938C136.061 26.8865 136.061 26.3792 136.061 25.8719C136.188 25.2378 136.443 24.6037 136.825 23.8428L140.265 17.248L141.539 17.8821L138.099 24.4769C137.717 25.2378 137.462 25.8719 137.462 26.3792C137.462 26.8865 137.717 27.267 138.227 27.5206C138.736 27.7743 139.246 27.7743 139.628 27.5206C140.01 27.267 140.392 26.7597 140.774 25.9988L144.214 19.404L145.488 20.0381L142.048 26.6329C141.666 27.3938 141.284 27.9011 140.902 28.4084C140.52 28.7889 140.01 29.0425 139.501 29.1693C138.991 29.2962 138.354 29.0425 137.717 28.7889C136.953 28.2816 136.443 27.7743 136.316 27.3938ZM148.163 21.5599L149.055 22.1941L147.653 30.0571L151.73 23.8428L152.876 24.6037L146.762 33.9886L145.87 33.4813L147.399 25.3646L143.195 31.7058L142.048 30.9449L148.163 21.5599ZM155.169 26.2524L156.443 27.1402L149.692 36.0178L148.418 35.13L155.169 26.2524ZM158.991 30.818L157.59 29.5498L158.354 28.662L162.303 32.0863L161.539 32.974L160.137 31.8326L153.641 39.3152L152.494 38.3006L158.991 30.818ZM160.52 40.4566L164.087 33.735L165.106 34.7495L162.43 39.6956L167.526 37.1592L168.545 38.1738L161.666 41.4712L158.864 44.2613L157.844 43.2467L160.52 40.4566ZM165.106 50.3488C165.36 49.5879 165.997 48.9537 166.889 48.1928L170.074 45.91C171.093 45.149 171.985 44.8954 172.749 44.7686C173.513 44.6417 174.278 45.149 174.915 46.1636C175.552 46.9246 175.679 47.6855 175.552 48.3196C175.424 48.9537 174.787 49.5878 174.023 50.222L173.259 50.7293L172.367 49.5878L173.004 49.0806C173.386 48.8269 173.768 48.5733 173.895 48.3196C174.15 48.066 174.15 47.9391 174.278 47.6855C174.278 47.4319 174.15 47.1782 173.895 46.7977C173.641 46.4173 173.386 46.2905 173.131 46.1636C172.876 46.0368 172.622 46.1636 172.239 46.2905C171.985 46.4173 171.602 46.6709 171.093 46.9246L167.526 49.461C167.016 49.8415 166.762 50.0951 166.507 50.3488C166.252 50.6024 166.252 50.8561 166.252 51.1097C166.252 51.3634 166.38 51.617 166.634 51.8707C166.889 52.2511 167.144 52.378 167.399 52.378C167.653 52.378 167.908 52.378 168.163 52.2511C168.418 52.1243 168.8 51.8707 169.182 51.617L169.819 51.1097L170.711 52.2511L170.074 52.7584C169.182 53.3925 168.418 53.773 167.653 53.773C166.889 53.773 166.252 53.3925 165.615 52.5048C164.978 51.8707 164.851 51.1097 165.106 50.3488ZM169.437 56.6899C169.692 55.929 170.456 55.2949 171.348 54.7876L175.042 52.6316C176.061 51.9975 176.953 51.8707 177.717 51.8707C178.481 51.9975 179.118 52.5048 179.628 53.3925C180.138 54.2803 180.265 55.1681 180.01 55.8022C179.755 56.4363 179.118 57.1972 178.099 57.7045L174.405 59.8605C173.386 60.4946 172.494 60.6215 171.73 60.6215C170.966 60.4946 170.329 59.9873 169.692 59.0996C169.309 58.2118 169.182 57.4509 169.437 56.6899ZM171.857 59.3532C172.239 59.3532 172.749 59.2264 173.386 58.8459L177.59 56.4363C178.227 56.0558 178.609 55.8022 178.736 55.4217C178.864 55.0412 178.864 54.6608 178.609 54.1535C178.354 53.6462 177.972 53.3925 177.59 53.3925C177.208 53.3925 176.698 53.5194 176.188 53.8998L171.985 56.3095C171.348 56.6899 170.966 56.9436 170.838 57.3241C170.583 57.7045 170.711 58.085 170.966 58.5923C171.093 59.0996 171.475 59.3532 171.857 59.3532ZM173.259 63.6652C173.641 63.0311 174.405 62.397 175.424 61.8897L179.246 60.1142C180.265 59.6069 181.157 59.4801 181.921 59.6069C182.685 59.7337 183.322 60.3678 183.704 61.3824C184.214 62.397 184.214 63.1579 183.832 63.9189C183.45 64.553 182.813 65.1871 181.794 65.6944L177.972 67.4699C176.953 67.9772 176.061 68.104 175.297 67.9772C174.532 67.8504 173.895 67.2163 173.513 66.2017C173.004 65.1871 173.004 64.2993 173.259 63.6652ZM175.552 66.4553C175.934 66.4553 176.443 66.3285 177.08 66.0748L181.539 64.0457C182.176 63.792 182.558 63.4116 182.813 63.1579C183.067 62.7775 183.067 62.397 182.813 61.8897C182.558 61.3824 182.303 61.1287 181.921 61.0019C181.539 61.0019 181.029 61.1287 180.392 61.3824L175.934 63.4116C175.297 63.6652 174.915 64.0457 174.66 64.2993C174.405 64.553 174.405 65.0603 174.66 65.5676C174.787 66.2017 175.169 66.4553 175.552 66.4553ZM185.997 66.9626L186.889 69.6259C187.271 70.5137 187.144 71.2746 186.889 71.9087C186.507 72.5428 185.87 72.9233 184.978 73.3038C184.087 73.5574 183.322 73.5574 182.685 73.3038C182.048 73.0501 181.539 72.416 181.284 71.6551L180.902 70.5137L175.934 72.2892L175.424 70.7673L185.997 66.9626ZM182.176 70.6405C182.303 71.021 182.43 71.4014 182.685 71.6551C182.813 71.9087 183.067 71.9087 183.322 72.0355C183.577 72.0355 183.959 72.0355 184.341 71.7819C184.851 71.6551 185.233 71.4014 185.488 71.2746C185.743 71.1478 185.87 70.8941 185.87 70.6405C185.87 70.3868 185.87 70.0064 185.615 69.4991L185.36 68.865L181.794 70.1332L182.176 70.6405ZM188.673 74.572L189.819 78.7572L188.673 79.0108L187.908 76.3475L184.341 77.2353L184.851 79.3913L183.832 79.6449L183.322 77.4889L179.373 78.5035L180.137 81.1668L179.118 81.4204L177.972 77.2353L188.673 74.572ZM190.329 81.4204L190.711 83.5764C190.966 84.7178 190.838 85.4788 190.456 86.1129C190.074 86.747 189.437 87.1275 188.29 87.2543C186.889 87.508 185.997 87.2543 185.488 86.3665L180.265 88.903L180.01 87.3811L184.978 85.0983L184.723 83.9569L179.501 84.8447L179.246 83.3228L190.329 81.4204ZM185.87 84.3374C185.997 84.9715 186.252 85.4788 186.507 85.7324C186.762 85.9861 187.271 85.9861 188.036 85.8593C188.545 85.7324 188.8 85.7324 189.055 85.4788C189.309 85.352 189.437 85.0983 189.564 84.8447C189.692 84.591 189.692 84.2106 189.564 83.7033L189.437 83.0691L185.743 83.7033L185.87 84.3374ZM191.73 91.9468L191.857 93.4686L180.902 96.6392L180.774 95.1173L183.577 94.3564L183.45 92.0736L180.647 91.6931L180.52 90.2981L191.73 91.9468ZM184.723 94.2296L189.692 92.9613L184.596 92.4541L184.723 94.2296ZM190.966 99.0489V97.1465H192.112V102.346H190.966V100.571H180.902V99.0489H190.966ZM191.985 104.883L191.857 106.405L180.647 105.644L180.774 104.122L191.985 104.883ZM181.284 108.434C181.921 108.053 182.94 107.926 184.087 108.053L188.29 108.687C189.437 108.814 190.329 109.195 190.838 109.702C191.348 110.209 191.602 111.097 191.348 112.112C191.22 113.126 190.838 113.887 190.074 114.268C189.437 114.648 188.545 114.775 187.399 114.648L183.195 114.014C182.048 113.887 181.157 113.507 180.647 112.873C180.137 112.365 179.883 111.478 180.01 110.463C180.138 109.575 180.52 108.814 181.284 108.434ZM181.539 112.112C181.794 112.365 182.303 112.492 183.067 112.619L187.908 113.253C188.545 113.38 189.055 113.38 189.437 113.126C189.819 112.999 189.946 112.619 190.074 111.985C190.201 111.351 190.074 110.97 189.819 110.717C189.564 110.463 189.055 110.336 188.418 110.209L183.577 109.575C182.94 109.448 182.43 109.448 182.048 109.702C181.666 109.829 181.411 110.209 181.411 110.843C181.157 111.478 181.284 111.858 181.539 112.112ZM190.201 118.199L189.946 119.214L182.048 120.609L189.309 122.384L189.055 123.653L178.227 120.989L178.481 119.975L186.634 118.706L179.246 116.931L179.501 115.663L190.201 118.199ZM26.2521 134.559L26.8891 135.828L23.1948 137.73L24.3413 140.013L28.0356 138.11L28.6725 139.379L20.0101 143.691L19.3731 142.422L23.4496 140.393L22.3031 138.11L18.2266 140.14L17.5897 138.871L26.2521 134.559ZM29.1821 140.393L31.0929 143.564L30.2012 144.071L28.9273 142.042L26.1247 143.691L27.1438 145.339L26.3795 145.847L25.3604 144.198L22.3031 145.973L23.577 148.003L22.6852 148.51L20.7744 145.212L29.1821 140.393ZM31.7298 144.578L32.4942 145.72L25.233 150.539L26.6343 152.568L25.87 153.075L23.7044 149.905L31.7298 144.578ZM34.5324 148.637L36.061 150.539C36.5706 151.173 36.8254 151.807 36.698 152.441C36.5706 153.075 36.1884 153.583 35.4241 154.09C34.7872 154.597 34.1502 154.724 33.6407 154.724C33.0037 154.724 32.4942 154.344 31.9846 153.71L31.3477 152.822L27.7808 155.612L26.8891 154.597L34.5324 148.637ZM33.0037 153.329C33.2585 153.456 33.3859 153.456 33.6407 153.456C33.8954 153.456 34.1502 153.202 34.405 152.949C34.7872 152.695 35.0419 152.441 35.1693 152.188C35.2967 151.934 35.2967 151.807 35.2967 151.554C35.2967 151.3 35.0419 151.046 34.7872 150.666L34.405 150.159L31.8572 152.188L33.0037 153.329ZM38.2266 153.202L39.1184 154.217L31.7298 160.558L30.8381 159.543L38.2266 153.202ZM40.0101 155.358L40.647 155.992L37.9719 162.46L42.5579 158.022L43.3222 158.783L36.3158 165.504L35.6789 164.87L38.4814 158.275L33.768 162.841L33.0037 162.08L40.0101 155.358ZM38.7362 166.646C38.8636 166.011 39.2458 165.251 39.8827 164.363L42.0483 161.953C42.5579 161.446 43.0674 160.939 43.4496 160.685C43.8317 160.431 44.3413 160.304 44.8508 160.431C45.3604 160.431 45.7426 160.685 46.2521 161.192C46.8891 161.826 47.2712 162.334 47.2712 162.968C47.2712 163.602 46.8891 164.236 46.2521 164.997L45.9973 165.251L45.1056 164.363L45.3604 164.109C45.6152 163.729 45.87 163.475 45.9973 163.221C46.1247 162.968 46.1247 162.714 46.1247 162.587C46.1247 162.334 45.87 162.207 45.6152 161.953C45.3604 161.699 45.1056 161.573 44.8508 161.573C44.5961 161.573 44.3413 161.699 44.0865 161.826C43.8317 161.953 43.577 162.334 43.3222 162.587L40.9018 165.251C40.3923 165.758 40.1375 166.265 40.0101 166.646C39.8827 167.026 40.1375 167.406 40.5196 167.66C40.9018 168.041 41.284 168.041 41.6661 167.914C42.0483 167.787 42.4305 167.406 42.94 166.899L43.3222 166.392L42.4305 165.631L43.0674 164.87L44.8508 166.519L41.6661 170.07L41.0292 169.562L41.6661 168.675C40.9018 169.055 40.1375 169.055 39.5005 168.421C38.991 168.041 38.7362 167.406 38.7362 166.646ZM46.5069 172.987C46.5069 172.353 46.7617 171.592 47.3986 170.704L49.3095 167.914C49.9464 167.026 50.5833 166.519 51.2203 166.265C51.8572 166.011 52.6216 166.138 53.3859 166.772C54.1502 167.28 54.5324 167.787 54.5324 168.421C54.5324 169.055 54.2776 169.689 53.768 170.45L53.3859 171.084L52.3668 170.323L52.7489 169.816C53.0037 169.436 53.1311 169.182 53.2585 168.928C53.3859 168.675 53.3859 168.548 53.3859 168.294C53.3859 168.041 53.1311 167.914 52.8763 167.66C52.6215 167.406 52.3668 167.406 52.112 167.406C51.8572 167.406 51.6024 167.533 51.4751 167.787C51.2203 168.041 51.0929 168.294 50.7107 168.675L48.5451 171.845C48.2903 172.226 48.0356 172.606 48.0356 172.86C47.9082 173.114 47.9082 173.367 48.0356 173.621C48.163 173.874 48.2903 174.001 48.5451 174.255C48.7999 174.509 49.0547 174.509 49.3095 174.509C49.5642 174.509 49.6916 174.382 49.9464 174.128C50.0738 174.001 50.3286 173.621 50.5833 173.24L50.9655 172.606L51.9846 173.367L51.6024 174.001C51.0929 174.762 50.4559 175.27 49.819 175.523C49.1821 175.777 48.5451 175.523 47.7808 175.016C46.8891 174.255 46.5069 173.621 46.5069 172.987ZM52.112 176.791C51.9846 176.157 52.2394 175.396 52.7489 174.509L54.6598 171.338C55.1693 170.45 55.6789 169.943 56.3158 169.689C56.9528 169.436 57.5897 169.562 58.4814 170.07C59.2458 170.577 59.7553 171.084 59.8827 171.718C60.0101 172.353 59.7553 173.114 59.2458 174.001L57.3349 177.172C56.8254 178.06 56.1884 178.567 55.5515 178.821C54.9145 179.074 54.1502 178.947 53.3859 178.44C52.6216 178.06 52.2394 177.552 52.112 176.791ZM55.1693 177.806C55.4241 177.679 55.8063 177.299 56.061 176.791L58.2267 173.114C58.4814 172.606 58.7362 172.226 58.6088 171.845C58.6088 171.465 58.354 171.211 57.9719 170.958C57.5897 170.704 57.2075 170.704 56.8254 170.831C56.5706 170.958 56.1884 171.338 55.9337 171.845L53.768 175.523C53.5133 176.03 53.2585 176.411 53.2585 176.791C53.2585 177.172 53.5133 177.426 53.8954 177.679C54.405 177.933 54.7872 177.933 55.1693 177.806ZM61.9209 172.099L63.0674 172.733L61.1566 180.596L66.1247 174.255L67.2712 174.762L63.1948 183.513L62.1757 183.006L65.1056 176.665L60.5196 182.245L59.8827 181.864L61.4114 174.889L58.2267 181.103L57.2075 180.596L61.9209 172.099ZM68.7999 175.396L70.0738 175.904L68.9273 183.893L73.2585 177.172L74.5324 177.679L71.3477 186.81L70.3286 186.43L72.6216 179.835L68.6725 185.796L67.9082 185.542L68.7999 178.44L66.2521 185.035L65.233 184.654L68.7999 175.396ZM74.2776 187.191C74.0228 186.81 73.8954 186.43 73.7681 185.923C73.7681 185.415 73.8954 184.781 74.0228 184.147L75.6789 177.933L76.9528 178.313L75.1693 184.528C74.9145 185.289 74.9145 185.796 74.9145 186.176C74.9145 186.557 75.2967 186.81 75.8063 187.064C76.3158 187.191 76.698 187.064 76.9528 186.81C77.2075 186.43 77.4623 185.923 77.5897 185.289L79.3731 179.074L80.647 179.455L78.991 185.669C78.7362 186.43 78.6088 186.937 78.354 187.318C78.0993 187.698 77.7171 188.079 77.3349 188.205C76.9528 188.332 76.3158 188.332 75.6789 188.205C75.0419 187.825 74.5324 187.571 74.2776 187.191ZM82.0483 179.581L82.94 179.708L84.4687 186.557L85.7426 180.216L86.8891 180.469L84.9782 189.981L84.0865 189.854L82.5579 182.879L81.284 189.347L80.1375 189.093L82.0483 179.581ZM88.2903 180.723L89.5642 180.85L88.2903 190.361L87.0165 190.235L88.2903 180.723ZM92.2394 182.118L90.5834 181.991L90.7107 180.977L95.2967 181.357L95.1693 182.372L93.6407 182.245L92.8763 190.869L91.4751 190.742L92.2394 182.118ZM96.4432 181.357H97.7171L97.3349 190.996H96.0611L96.4432 181.357ZM99.2458 181.484H103.067V182.498H100.647V185.669H102.558V186.684H100.647V190.235H103.067V191.249H99.2458V181.484ZM105.233 190.361C104.723 189.854 104.469 189.22 104.341 188.332L105.488 187.952C105.615 188.586 105.743 189.093 105.997 189.474C106.252 189.854 106.634 189.981 107.016 189.981C107.399 189.981 107.653 189.854 107.781 189.601C107.908 189.347 108.036 189.093 108.036 188.713C108.036 188.332 107.908 187.952 107.653 187.698C107.526 187.445 107.144 187.191 106.762 186.937L104.978 185.669C104.596 185.415 104.341 185.162 104.214 184.781C104.087 184.528 103.959 184.02 103.959 183.64C103.959 182.879 104.087 182.372 104.469 181.991C104.851 181.611 105.36 181.357 106.125 181.23C106.889 181.23 107.526 181.357 107.908 181.738C108.29 182.118 108.673 182.752 108.8 183.513L107.653 183.893C107.526 183.386 107.399 182.879 107.271 182.625C107.016 182.372 106.762 182.245 106.252 182.245C105.87 182.245 105.615 182.372 105.488 182.625C105.36 182.879 105.233 183.133 105.233 183.386C105.233 183.64 105.36 183.893 105.488 184.147C105.615 184.274 105.743 184.528 105.997 184.654L107.781 185.923C108.29 186.303 108.545 186.684 108.927 187.064C109.309 187.445 109.437 187.952 109.437 188.459C109.437 189.22 109.309 189.727 108.927 190.235C108.545 190.742 108.036 190.869 107.271 190.996C106.38 190.996 105.743 190.869 105.233 190.361ZM112.367 180.596L113.641 180.342L114.405 184.401L116.825 183.893L116.061 179.835L117.335 179.581L119.118 189.093L117.844 189.347L116.953 184.908L114.532 185.415L115.424 189.854L114.15 190.108L112.367 180.596ZM118.736 179.201L122.43 178.186L122.685 179.201L120.392 179.835L121.157 182.879L123.067 182.372L123.322 183.259L121.411 183.767L122.303 187.191L124.596 186.557L124.851 187.445L121.157 188.459L118.736 179.201ZM123.45 177.933L124.723 177.552L127.399 185.796L129.692 185.035L129.946 185.923L126.252 187.064L123.45 177.933ZM128.163 176.411L130.456 175.523C131.22 175.27 131.857 175.27 132.367 175.523C132.876 175.777 133.258 176.411 133.641 177.172C133.895 177.933 134.023 178.567 133.768 179.074C133.513 179.581 133.131 180.089 132.367 180.342L131.348 180.723L133.004 184.908L131.73 185.415L128.163 176.411ZM131.602 179.581C131.985 179.455 132.239 179.328 132.367 179.074C132.494 178.947 132.622 178.694 132.622 178.44C132.622 178.186 132.622 177.933 132.367 177.552C132.239 177.045 131.985 176.791 131.857 176.538C131.73 176.411 131.475 176.284 131.22 176.284C130.966 176.284 130.711 176.284 130.201 176.538L129.564 176.791L130.711 179.835L131.602 179.581ZM137.208 173.494L135.806 174.255L135.297 173.367L139.373 171.211L139.883 172.099L138.481 172.86L142.558 180.596L141.411 181.23L137.208 173.494ZM140.137 170.831L141.284 170.07L143.45 173.621L145.615 172.353L143.45 168.802L144.596 168.041L149.692 176.284L148.545 177.045L146.125 173.24L143.959 174.509L146.38 178.313L145.233 179.074L140.137 170.831ZM145.743 167.28L148.8 165.124L149.437 165.885L147.526 167.28L149.437 169.816L150.966 168.675L151.475 169.436L149.946 170.577L151.985 173.494L154.023 172.099L154.532 172.86L151.475 175.016L145.743 167.28ZM149.819 164.363L150.838 163.475L157.208 168.294L153.386 161.192L154.405 160.304L160.774 167.533L159.883 168.294L155.297 162.968L158.609 169.436L157.972 169.943L152.239 165.631L156.698 171.084L155.806 171.845L149.819 164.363ZM162.303 165.377C161.666 165.377 161.029 164.997 160.392 164.363L161.029 163.348C161.539 163.729 161.921 163.982 162.303 164.109C162.685 164.236 163.067 164.109 163.45 163.855C163.704 163.602 163.832 163.348 163.832 163.095C163.832 162.841 163.704 162.587 163.45 162.334C163.195 162.08 162.813 161.826 162.558 161.826C162.303 161.699 161.921 161.699 161.411 161.826L159.246 161.953C158.864 161.953 158.481 161.953 158.099 161.826C157.717 161.699 157.462 161.446 157.08 161.065C156.571 160.558 156.316 160.051 156.316 159.417C156.316 158.909 156.571 158.275 157.08 157.895C157.59 157.387 158.227 157.134 158.736 157.134C159.246 157.134 159.883 157.387 160.52 158.022L159.883 159.036C159.501 158.656 159.118 158.402 158.736 158.402C158.354 158.275 158.099 158.402 157.717 158.783C157.462 159.036 157.335 159.29 157.335 159.543C157.335 159.797 157.462 160.051 157.717 160.304C157.972 160.558 158.099 160.685 158.354 160.685C158.609 160.812 158.864 160.812 159.118 160.812L161.284 160.685C161.794 160.685 162.43 160.685 162.813 160.812C163.195 160.939 163.704 161.192 164.087 161.573C164.596 162.08 164.851 162.587 164.851 163.221C164.851 163.855 164.596 164.363 164.087 164.87C163.577 165.251 162.94 165.504 162.303 165.377ZM159.628 155.231L162.048 152.441L162.813 153.075L161.284 154.851L163.704 157.007L164.978 155.485L165.743 156.119L164.469 157.641L167.144 159.924L168.8 158.148L169.564 158.783L167.016 161.573L159.628 155.231ZM162.813 151.554L163.704 150.539L170.583 155.866L172.112 153.963L172.876 154.597L170.583 157.641L162.813 151.554ZM165.106 148.637L165.87 147.622L172.622 150.412L167.526 145.212L168.163 144.198L174.915 151.427L174.278 152.441L165.106 148.637ZM168.8 143.183L170.711 140.013L171.602 140.52L170.329 142.549L173.131 144.198L174.15 142.549L174.915 143.056L173.895 144.705L176.953 146.481L178.227 144.452L179.118 144.959L177.208 148.256L168.8 143.183ZM179.501 142.549C178.864 142.676 178.099 142.549 177.335 142.296L177.59 141.027C178.227 141.281 178.609 141.408 179.118 141.408C179.501 141.408 179.883 141.154 180.137 140.774C180.265 140.52 180.265 140.14 180.265 139.886C180.137 139.632 180.01 139.379 179.628 139.252C179.246 139.125 178.991 138.998 178.609 138.998C178.227 138.998 177.972 139.125 177.462 139.379L175.424 140.14C175.042 140.266 174.66 140.393 174.278 140.393C173.895 140.393 173.513 140.266 173.131 140.013C172.494 139.632 172.112 139.252 171.985 138.744C171.857 138.237 171.857 137.603 172.239 136.969C172.622 136.335 173.004 135.828 173.513 135.701C174.023 135.574 174.66 135.574 175.552 135.954L175.297 137.096C174.787 136.842 174.278 136.842 174.023 136.842C173.641 136.842 173.386 137.096 173.131 137.476C173.004 137.73 172.876 138.11 173.004 138.364C173.131 138.618 173.259 138.871 173.641 138.998C173.895 139.125 174.15 139.252 174.405 139.252C174.66 139.252 174.915 139.252 175.169 139.125L177.208 138.364C177.717 138.11 178.227 137.984 178.736 137.984C179.246 137.984 179.755 138.11 180.265 138.364C180.902 138.744 181.284 139.125 181.539 139.632C181.666 140.14 181.666 140.774 181.284 141.408C180.647 142.042 180.137 142.422 179.501 142.549Z" fill="#0D4976"/>
<path d="M19.2463 131.135C20.1609 131.135 20.9023 130.397 20.9023 129.486C20.9023 128.576 20.1609 127.838 19.2463 127.838C18.3317 127.838 17.5902 128.576 17.5902 129.486C17.5902 130.397 18.3317 131.135 19.2463 131.135Z" fill="#0D4976"/>
<path d="M180.52 131.135C181.434 131.135 182.176 130.397 182.176 129.486C182.176 128.576 181.434 127.838 180.52 127.838C179.605 127.838 178.864 128.576 178.864 129.486C178.864 130.397 179.605 131.135 180.52 131.135Z" fill="#0D4976"/>
<path d="M90.7111 73.1769H93.7684V78.123H90.7111V73.1769ZM99.2461 73.1769H102.176V78.123H99.2461V73.1769ZM111.348 128.091C109.437 126.696 107.144 126.569 105.488 126.569H104.087V142.042H105.488C107.144 142.042 109.437 141.915 111.348 140.52C112.877 139.379 114.278 137.349 114.278 134.306C114.278 131.516 113.004 129.233 111.348 128.091Z" fill="#0D4976"/>
<path d="M100.01 26.1255C59.5008 26.1255 26.2524 58.7191 26.2524 99.5561C26.2524 103.361 26.3798 107.546 27.0167 111.097C30.4562 108.941 35.0422 106.278 41.1568 103.614V85.2251H64.9785V96.3855C65.8702 96.2587 66.6345 96.1319 67.5263 96.0051C68.6728 95.8782 69.8193 95.6246 70.9657 95.4978V88.5225H76.4435V94.8637C77.2078 94.7368 78.9912 94.61 80.9021 94.3564V83.0691L73.2587 70.1331L65.6154 83.7032H38.3543L46.6345 69.499H53.8957V54.5339L64.2142 38.8078H83.0677V68.2308H89.4371V53.3925H94.5326V68.2308H98.3543V53.3925H103.068V68.104H108.163V91.3126C123.705 91.4394 132.367 89.6639 142.176 84.4642C158.864 75.8402 155.552 57.5777 155.552 57.5777C155.552 57.5777 165.488 74.1915 150.329 91.4394C137.59 105.897 106.507 109.321 81.2842 124.667C81.1568 124.667 81.1568 124.794 81.0294 124.794C84.0868 126.823 86.125 130.247 86.125 134.306C86.125 140.647 81.2842 145.593 74.7874 145.593C69.3097 145.593 65.1059 142.295 63.832 137.476C53.6409 146.607 49.6919 153.71 49.6919 153.71C64.5963 167.153 82.9403 173.748 100.01 173.748C140.902 173.748 174.405 140.647 174.405 99.9366C174.405 59.0995 140.902 26.1255 100.01 26.1255ZM98.6091 145.212H88.8001V123.526H92.1122V142.042H98.4817V145.212H98.6091ZM113.259 143.183C110.711 144.959 108.291 145.212 105.233 145.212H100.775V123.526H105.361C108.418 123.526 111.093 123.906 113.514 125.682C116.189 127.711 117.717 130.881 117.717 134.432C117.717 137.984 116.189 141.154 113.259 143.183ZM137.08 128.599C134.66 126.443 132.367 126.189 131.093 126.189C126.38 126.189 123.195 129.74 123.195 134.432C123.195 138.998 126.507 142.549 131.221 142.549C133.896 142.549 135.934 141.154 137.08 140.013V143.944C134.915 145.212 132.622 145.593 131.093 145.593C127.144 145.593 124.596 143.817 123.322 142.549C120.775 140.139 119.756 137.349 119.756 134.306C119.756 130.247 121.412 127.584 123.322 125.808C125.615 123.652 128.163 123.018 131.221 123.018C133.259 123.018 135.17 123.399 137.08 124.54V128.599ZM156.061 128.599C153.641 126.443 151.348 126.189 150.074 126.189C145.361 126.189 142.176 129.74 142.176 134.432C142.176 138.998 145.488 142.549 150.201 142.549C152.877 142.549 154.915 141.154 156.061 140.013V143.944C153.896 145.212 151.603 145.593 150.074 145.593C146.125 145.593 143.577 143.817 142.303 142.549C139.756 140.139 138.736 137.349 138.736 134.306C138.736 130.247 140.393 127.584 142.303 125.808C144.596 123.652 147.144 123.018 150.201 123.018C152.24 123.018 154.15 123.399 156.061 124.54V128.599Z" fill="#0D4976"/>
<path d="M82.7876 134.255C82.7876 138.743 79.4062 142.27 74.7366 142.27C70.067 142.27 66.6856 138.824 66.6856 134.255C66.6856 129.766 70.067 126.24 74.7366 126.24C79.4062 126.24 82.7876 129.686 82.7876 134.255Z" fill="#0D4976"/>
</g>
<path id="stripe" d="M70.7109 117.438C94.6599 104.883 128.927 101.966 143.577 92.3272C154.787 84.9715 158.354 74.572 157.972 65.948C157.717 61.5092 155.806 57.5777 155.806 57.5777C155.806 57.5777 163.832 79.1376 138.227 90.5517C119.628 98.922 96.6982 95.2442 64.4688 105.136C46.5071 110.717 30.5835 124.413 30.5835 124.54C32.2395 129.36 34.9147 135.447 39.6281 142.296C39.7555 142.296 48.6727 128.852 70.7109 117.438Z" fill="#C72030"/>
</g>
</svg>
